<svg width="32" height="32" viewBox="0 0 32 32" fill="none" xmlns="http://www.w3.org/2000/svg">
<path opacity="0.58" d="M32 0H0V32H32V0Z" fill="white"/>
<path opacity="0.4" d="M28.5334 17.2667L22.5201 20.2801L18.2667 16.0267L22.5601 11.7334L28.5334 14.7334C29.5867 15.2534 29.5867 16.7467 28.5334 17.2667Z" fill="#274699"/>
<path d="M22.5601 11.7333L18.2667 16.0266L5.37341 3.1333L22.5601 11.7333Z" fill="#274699"/>
<path opacity="0.4" d="M18.2666 16.0266L5.49329 28.8L4.73329 29.1866C3.77329 29.6533 2.66663 28.9733 2.66663 27.9066V4.0933C2.66663 3.02663 3.77329 2.34663 4.73329 2.81329L5.37329 3.1333L18.2666 16.0266Z" fill="#274699"/>
<path d="M22.52 20.2801L5.49329 28.8001L18.2666 16.0267L22.52 20.2801Z" fill="#274699"/>
</svg>
