<svg width="32" height="32" viewBox="0 0 32 32" fill="none" xmlns="http://www.w3.org/2000/svg">
<path opacity="0.58" d="M32 0H0V32H32V0Z" fill="white"/>
<path fill-rule="evenodd" clip-rule="evenodd" d="M25.4666 25.5467C26.2533 24.3467 26.5466 23.7334 27.1466 22.3867C22.7199 20.7067 22.0133 14.4 26.3866 11.9867C25.0533 10.3067 23.1733 9.33337 21.3999 9.33337C20.1199 9.33337 19.2399 9.66671 18.4533 9.97338C17.7866 10.2267 17.1866 10.4534 16.4399 10.4534C15.6399 10.4534 14.9333 10.2 14.1866 9.93337C13.3866 9.64004 12.5333 9.33337 11.4666 9.33337C9.47994 9.33337 7.35994 10.5467 6.01328 12.6267C4.11994 15.56 4.45327 21.0534 7.5066 25.7467C8.59994 27.4267 10.0666 29.3067 11.9733 29.3334C12.7733 29.3467 13.2933 29.1067 13.8666 28.8534C14.5199 28.56 15.2266 28.24 16.4666 28.24C17.7066 28.2267 18.3999 28.56 19.0533 28.8534C19.6133 29.1067 20.1199 29.3467 20.9066 29.3334C22.8266 29.3067 24.3733 27.2267 25.4666 25.5467Z" fill="#274699"/>
<path opacity="0.4" fill-rule="evenodd" clip-rule="evenodd" d="M21.12 2.66663C21.3333 4.13329 20.7333 5.58662 19.9466 6.59996C19.1066 7.69329 17.64 8.54663 16.2266 8.4933C15.9733 7.07996 16.6266 5.62662 17.4266 4.65329C18.32 3.58662 19.8266 2.75996 21.12 2.66663Z" fill="#274699"/>
</svg>
