<svg width="16" height="16" viewBox="0 0 16 16" fill="none" xmlns="http://www.w3.org/2000/svg">
<path d="M5.33337 3.83337C5.06004 3.83337 4.83337 3.60671 4.83337 3.33337V1.33337C4.83337 1.06004 5.06004 0.833374 5.33337 0.833374C5.60671 0.833374 5.83337 1.06004 5.83337 1.33337V3.33337C5.83337 3.60671 5.60671 3.83337 5.33337 3.83337Z" fill="white"/>
<path d="M10.6666 3.83337C10.3933 3.83337 10.1666 3.60671 10.1666 3.33337V1.33337C10.1666 1.06004 10.3933 0.833374 10.6666 0.833374C10.94 0.833374 11.1666 1.06004 11.1666 1.33337V3.33337C11.1666 3.60671 10.94 3.83337 10.6666 3.83337Z" fill="white"/>
<path d="M5.66667 9.66667C5.58 9.66667 5.49333 9.64668 5.41333 9.61335C5.32667 9.58001 5.26 9.53333 5.19333 9.47333C5.07333 9.34667 5 9.18 5 9C5 8.91334 5.02 8.82667 5.05333 8.74667C5.08667 8.66667 5.13333 8.59334 5.19333 8.52668C5.26 8.46668 5.32667 8.42 5.41333 8.38666C5.65333 8.28666 5.95333 8.34001 6.14 8.52668C6.26 8.65334 6.33333 8.82667 6.33333 9C6.33333 9.04 6.32667 9.08668 6.32 9.13335C6.31333 9.17335 6.3 9.21334 6.28 9.25334C6.26667 9.29334 6.24667 9.33334 6.22 9.37334C6.2 9.40667 6.16667 9.44 6.14 9.47333C6.01333 9.59333 5.84 9.66667 5.66667 9.66667Z" fill="white"/>
<path d="M8.00004 9.6667C7.91337 9.6667 7.82671 9.64671 7.74671 9.61338C7.66004 9.58005 7.59337 9.53337 7.52671 9.47337C7.40671 9.3467 7.33337 9.18004 7.33337 9.00004C7.33337 8.91337 7.35338 8.8267 7.38671 8.7467C7.42004 8.6667 7.46671 8.59338 7.52671 8.52671C7.59337 8.46671 7.66004 8.42003 7.74671 8.3867C7.98671 8.28003 8.28671 8.34004 8.47337 8.52671C8.59337 8.65338 8.66671 8.8267 8.66671 9.00004C8.66671 9.04004 8.66004 9.08671 8.65337 9.13338C8.64671 9.17338 8.63337 9.21337 8.61337 9.25337C8.60004 9.29337 8.58004 9.33337 8.55338 9.37337C8.53338 9.4067 8.50004 9.44003 8.47337 9.47337C8.34671 9.59337 8.17337 9.6667 8.00004 9.6667Z" fill="white"/>
<path d="M10.3333 9.6667C10.2466 9.6667 10.16 9.64671 10.08 9.61338C9.99329 9.58005 9.92663 9.53337 9.85996 9.47337C9.83329 9.44003 9.80662 9.4067 9.77996 9.37337C9.75329 9.33337 9.73329 9.29337 9.71996 9.25337C9.69996 9.21337 9.68663 9.17338 9.67996 9.13338C9.67329 9.08671 9.66663 9.04004 9.66663 9.00004C9.66663 8.8267 9.73996 8.65338 9.85996 8.52671C9.92663 8.46671 9.99329 8.42003 10.08 8.3867C10.3266 8.28003 10.62 8.34004 10.8066 8.52671C10.9266 8.65338 11 8.8267 11 9.00004C11 9.04004 10.9933 9.08671 10.9866 9.13338C10.98 9.17338 10.9666 9.21337 10.9466 9.25337C10.9333 9.29337 10.9133 9.33337 10.8866 9.37337C10.8666 9.4067 10.8333 9.44003 10.8066 9.47337C10.68 9.59337 10.5066 9.6667 10.3333 9.6667Z" fill="white"/>
<path d="M5.66667 12C5.58 12 5.49333 11.9801 5.41333 11.9467C5.33333 11.9134 5.26 11.8667 5.19333 11.8067C5.07333 11.68 5 11.5067 5 11.3334C5 11.2467 5.02 11.16 5.05333 11.08C5.08667 10.9934 5.13333 10.92 5.19333 10.86C5.44 10.6134 5.89333 10.6134 6.14 10.86C6.26 10.9867 6.33333 11.16 6.33333 11.3334C6.33333 11.5067 6.26 11.68 6.14 11.8067C6.01333 11.9267 5.84 12 5.66667 12Z" fill="white"/>
<path d="M8.00004 12C7.82671 12 7.65337 11.9267 7.52671 11.8067C7.40671 11.68 7.33337 11.5067 7.33337 11.3334C7.33337 11.2467 7.35338 11.16 7.38671 11.08C7.42004 10.9934 7.46671 10.92 7.52671 10.86C7.77337 10.6134 8.22671 10.6134 8.47337 10.86C8.53337 10.92 8.58004 10.9934 8.61337 11.08C8.64671 11.16 8.66671 11.2467 8.66671 11.3334C8.66671 11.5067 8.59337 11.68 8.47337 11.8067C8.34671 11.9267 8.17337 12 8.00004 12Z" fill="white"/>
<path d="M10.3333 12.0001C10.16 12.0001 9.98663 11.9267 9.85996 11.8067C9.79996 11.7467 9.75329 11.6734 9.71996 11.5867C9.68663 11.5067 9.66663 11.4201 9.66663 11.3334C9.66663 11.2467 9.68663 11.1601 9.71996 11.0801C9.75329 10.9934 9.79996 10.9201 9.85996 10.8601C10.0133 10.7067 10.2466 10.6334 10.46 10.6801C10.5066 10.6867 10.5466 10.7001 10.5866 10.7201C10.6266 10.7334 10.6666 10.7534 10.7066 10.7801C10.74 10.8001 10.7733 10.8334 10.8066 10.8601C10.9266 10.9867 11 11.1601 11 11.3334C11 11.5067 10.9266 11.6801 10.8066 11.8067C10.68 11.9267 10.5066 12.0001 10.3333 12.0001Z" fill="white"/>
<path d="M13.6667 6.55994H2.33337C2.06004 6.55994 1.83337 6.33327 1.83337 6.05994C1.83337 5.7866 2.06004 5.55994 2.33337 5.55994H13.6667C13.94 5.55994 14.1667 5.7866 14.1667 6.05994C14.1667 6.33327 13.94 6.55994 13.6667 6.55994Z" fill="white"/>
<path d="M10.6667 15.1667H5.33333C2.9 15.1667 1.5 13.7667 1.5 11.3334V5.66671C1.5 3.23337 2.9 1.83337 5.33333 1.83337H10.6667C13.1 1.83337 14.5 3.23337 14.5 5.66671V11.3334C14.5 13.7667 13.1 15.1667 10.6667 15.1667ZM5.33333 2.83337C3.42667 2.83337 2.5 3.76004 2.5 5.66671V11.3334C2.5 13.24 3.42667 14.1667 5.33333 14.1667H10.6667C12.5733 14.1667 13.5 13.24 13.5 11.3334V5.66671C13.5 3.76004 12.5733 2.83337 10.6667 2.83337H5.33333Z" fill="white"/>
</svg>
