<svg width="16" height="16" viewBox="0 0 16 16" fill="none" xmlns="http://www.w3.org/2000/svg">
<path d="M11.6333 15.1667C10.88 15.1667 10.0866 14.9867 9.26665 14.64C8.46665 14.3 7.65998 13.8334 6.87331 13.2667C6.09331 12.6934 5.33998 12.0534 4.62665 11.3534C3.91998 10.64 3.27998 9.88671 2.71331 9.11337C2.13998 8.31337 1.67998 7.51337 1.35331 6.74004C1.00665 5.91337 0.833313 5.11337 0.833313 4.36004C0.833313 3.84004 0.926646 3.34671 1.10665 2.88671C1.29331 2.41337 1.59331 1.97337 1.99998 1.59337C2.51331 1.08671 3.09998 0.833374 3.72665 0.833374C3.98665 0.833374 4.25331 0.893374 4.47998 1.00004C4.73998 1.12004 4.95998 1.30004 5.11998 1.54004L6.66665 3.72004C6.80665 3.91337 6.91331 4.10004 6.98665 4.28671C7.07331 4.48671 7.11998 4.68671 7.11998 4.88004C7.11998 5.13337 7.04665 5.38004 6.90665 5.61337C6.80665 5.79337 6.65331 5.98671 6.45998 6.18004L6.00665 6.65337C6.01331 6.67337 6.01998 6.68671 6.02665 6.70004C6.10665 6.84004 6.26665 7.08004 6.57331 7.44004C6.89998 7.81337 7.20665 8.15337 7.51331 8.46671C7.90665 8.85337 8.23331 9.16004 8.53998 9.41337C8.91998 9.73337 9.16665 9.89337 9.31331 9.96671L9.29998 10L9.78665 9.52004C9.99331 9.31337 10.1933 9.16004 10.3866 9.06004C10.7533 8.83337 11.22 8.79337 11.6866 8.98671C11.86 9.06004 12.0466 9.16004 12.2466 9.30004L14.46 10.8734C14.7066 11.04 14.8866 11.2534 14.9933 11.5067C15.0933 11.76 15.14 11.9934 15.14 12.2267C15.14 12.5467 15.0666 12.8667 14.9266 13.1667C14.7866 13.4667 14.6133 13.7267 14.3933 13.9667C14.0133 14.3867 13.6 14.6867 13.12 14.88C12.66 15.0667 12.16 15.1667 11.6333 15.1667ZM3.72665 1.83337C3.35998 1.83337 3.01998 1.99337 2.69331 2.31337C2.38665 2.60004 2.17331 2.91337 2.03998 3.25337C1.89998 3.60004 1.83331 3.96671 1.83331 4.36004C1.83331 4.98004 1.97998 5.65337 2.27331 6.34671C2.57331 7.05337 2.99331 7.78671 3.52665 8.52004C4.05998 9.25337 4.66665 9.96671 5.33331 10.64C5.99998 11.3 6.71998 11.9134 7.45998 12.4534C8.17998 12.98 8.91998 13.4067 9.65331 13.7134C10.7933 14.2 11.86 14.3134 12.74 13.9467C13.08 13.8067 13.38 13.5934 13.6533 13.2867C13.8066 13.12 13.9266 12.94 14.0266 12.7267C14.1066 12.56 14.1466 12.3867 14.1466 12.2134C14.1466 12.1067 14.1266 12 14.0733 11.88C14.0533 11.84 14.0133 11.7667 13.8866 11.68L11.6733 10.1067C11.54 10.0134 11.42 9.94671 11.3066 9.90004C11.16 9.84004 11.1 9.78004 10.8733 9.92004C10.74 9.98671 10.62 10.0867 10.4866 10.22L9.97998 10.72C9.71998 10.9734 9.31998 11.0334 9.01331 10.92L8.83331 10.84C8.55998 10.6934 8.23998 10.4667 7.88665 10.1667C7.56665 9.89337 7.21998 9.57337 6.79998 9.16004C6.47331 8.82671 6.14665 8.47337 5.80665 8.08004C5.49331 7.71337 5.26665 7.40004 5.12665 7.14004L5.04665 6.94004C5.00665 6.78671 4.99331 6.70004 4.99331 6.60671C4.99331 6.36671 5.07998 6.15337 5.24665 5.98671L5.74665 5.46671C5.87998 5.33337 5.97998 5.20671 6.04665 5.09337C6.09998 5.00671 6.11998 4.93337 6.11998 4.86671C6.11998 4.81337 6.09998 4.73337 6.06665 4.65337C6.01998 4.54671 5.94665 4.42671 5.85331 4.30004L4.30665 2.11337C4.23998 2.02004 4.15998 1.95337 4.05998 1.90671C3.95331 1.86004 3.83998 1.83337 3.72665 1.83337ZM9.29998 10.0067L9.19331 10.46L9.37331 9.99337C9.33998 9.98671 9.31331 9.99337 9.29998 10.0067Z" fill="white"/>
<path d="M12.3333 6.49996C12.06 6.49996 11.8333 6.27329 11.8333 5.99996C11.8333 5.75996 11.5933 5.25996 11.1933 4.83329C10.8 4.41329 10.3667 4.16663 10 4.16663C9.72667 4.16663 9.5 3.93996 9.5 3.66663C9.5 3.39329 9.72667 3.16663 10 3.16663C10.6467 3.16663 11.3267 3.51329 11.92 4.14663C12.4733 4.73996 12.8333 5.46663 12.8333 5.99996C12.8333 6.27329 12.6067 6.49996 12.3333 6.49996Z" fill="white"/>
<path d="M14.6667 6.50004C14.3933 6.50004 14.1667 6.27337 14.1667 6.00004C14.1667 3.70004 12.3 1.83337 10 1.83337C9.72667 1.83337 9.5 1.60671 9.5 1.33337C9.5 1.06004 9.72667 0.833374 10 0.833374C12.8467 0.833374 15.1667 3.15337 15.1667 6.00004C15.1667 6.27337 14.94 6.50004 14.6667 6.50004Z" fill="white"/>
</svg>
