<svg width="48" height="48" viewBox="0 0 48 48" fill="none" xmlns="http://www.w3.org/2000/svg">
<rect width="48" height="48" rx="8" fill="#DA8359"/>
<path d="M27.7066 27.98H20.2933C17.64 27.98 16.8333 27.1734 16.8333 24.52V20.2934C16.8333 17.64 17.64 16.8334 20.2933 16.8334H27.7C30.3533 16.8334 31.16 17.64 31.16 20.2934V24.5134C31.1666 27.1734 30.36 27.98 27.7066 27.98ZM20.2933 17.8334C18.2 17.8334 17.8333 18.2 17.8333 20.2934V24.5134C17.8333 26.6067 18.2 26.9734 20.2933 26.9734H27.7C29.7933 26.9734 30.16 26.6067 30.16 24.5134V20.2934C30.16 18.2 29.7933 17.8334 27.7 17.8334H20.2933Z" fill="white"/>
<path d="M24 31.1666C23.7267 31.1666 23.5 30.94 23.5 30.6666V27.48C23.5 27.2066 23.7267 26.98 24 26.98C24.2733 26.98 24.5 27.2066 24.5 27.48V30.6666C24.5 30.94 24.2733 31.1666 24 31.1666Z" fill="white"/>
<path d="M30.6666 25.1666H17.3333C17.06 25.1666 16.8333 24.94 16.8333 24.6666C16.8333 24.3933 17.06 24.1666 17.3333 24.1666H30.6666C30.94 24.1666 31.1666 24.3933 31.1666 24.6666C31.1666 24.94 30.94 25.1666 30.6666 25.1666Z" fill="white"/>
<path d="M27 31.1666H21C20.7267 31.1666 20.5 30.94 20.5 30.6666C20.5 30.3933 20.7267 30.1666 21 30.1666H27C27.2733 30.1666 27.5 30.3933 27.5 30.6666C27.5 30.94 27.2733 31.1666 27 31.1666Z" fill="white"/>
</svg>
