<svg width="16" height="16" viewBox="0 0 16 16" fill="none" xmlns="http://www.w3.org/2000/svg">
<path d="M6 11.8334C5.72667 11.8334 5.5 11.6067 5.5 11.3334V8.54003L5.02 9.02003C4.82667 9.21337 4.50667 9.21337 4.31333 9.02003C4.12 8.8267 4.12 8.5067 4.31333 8.31337L5.64667 6.98003C5.78667 6.84003 6.00667 6.79337 6.19333 6.87337C6.38 6.9467 6.5 7.13337 6.5 7.33337V11.3334C6.5 11.6067 6.27333 11.8334 6 11.8334Z" fill="white"/>
<path d="M7.33338 9.16663C7.20671 9.16663 7.08004 9.11996 6.98004 9.01996L5.64671 7.68663C5.45338 7.49329 5.45338 7.17329 5.64671 6.97996C5.84004 6.78663 6.16004 6.78663 6.35338 6.97996L7.68671 8.31329C7.88004 8.50663 7.88004 8.82663 7.68671 9.01996C7.58671 9.11996 7.46004 9.16663 7.33338 9.16663Z" fill="white"/>
<path d="M10 15.1667H6.00004C2.38004 15.1667 0.833374 13.62 0.833374 10V6.00004C0.833374 2.38004 2.38004 0.833374 6.00004 0.833374H9.33337C9.60671 0.833374 9.83337 1.06004 9.83337 1.33337C9.83337 1.60671 9.60671 1.83337 9.33337 1.83337H6.00004C2.92671 1.83337 1.83337 2.92671 1.83337 6.00004V10C1.83337 13.0734 2.92671 14.1667 6.00004 14.1667H10C13.0734 14.1667 14.1667 13.0734 14.1667 10V6.66671C14.1667 6.39337 14.3934 6.16671 14.6667 6.16671C14.94 6.16671 15.1667 6.39337 15.1667 6.66671V10C15.1667 13.62 13.62 15.1667 10 15.1667Z" fill="white"/>
<path d="M14.6667 7.1667H12C9.72004 7.1667 8.83337 6.28003 8.83337 4.00003V1.33337C8.83337 1.13337 8.95337 0.9467 9.14004 0.873366C9.32671 0.793366 9.54004 0.840033 9.68671 0.980033L15.02 6.31337C15.16 6.45337 15.2067 6.67337 15.1267 6.86003C15.0467 7.0467 14.8667 7.1667 14.6667 7.1667ZM9.83337 2.54003V4.00003C9.83337 5.72003 10.28 6.1667 12 6.1667H13.46L9.83337 2.54003Z" fill="white"/>
</svg>
