<svg width="16" height="16" viewBox="0 0 16 16" fill="none" xmlns="http://www.w3.org/2000/svg">
<path d="M10.16 14.8467H10.0733C7.11332 14.8467 5.68666 13.68 5.43999 11.0667C5.41332 10.7933 5.61332 10.5467 5.89332 10.52C6.16666 10.4933 6.41332 10.7 6.43999 10.9733C6.63332 13.0667 7.61999 13.8467 10.08 13.8467H10.1667C12.88 13.8467 13.84 12.8867 13.84 10.1733V5.82665C13.84 3.11332 12.88 2.15332 10.1667 2.15332H10.08C7.60666 2.15332 6.61999 2.94665 6.43999 5.07999C6.40666 5.35332 6.17999 5.55999 5.89332 5.53332C5.61332 5.51332 5.41332 5.26665 5.43332 4.99332C5.65999 2.33999 7.09332 1.15332 10.0733 1.15332H10.16C13.4333 1.15332 14.8333 2.55332 14.8333 5.82665V10.1733C14.8333 13.4467 13.4333 14.8467 10.16 14.8467Z" fill="white"/>
<path d="M9.91998 8.5H1.33331C1.05998 8.5 0.833313 8.27333 0.833313 8C0.833313 7.72667 1.05998 7.5 1.33331 7.5H9.91998C10.1933 7.5 10.42 7.72667 10.42 8C10.42 8.27333 10.2 8.5 9.91998 8.5Z" fill="white"/>
<path d="M8.43333 10.7333C8.30666 10.7333 8.18 10.6866 8.08 10.5866C7.88666 10.3933 7.88666 10.0733 8.08 9.87998L9.96 7.99998L8.08 6.11998C7.88666 5.92664 7.88666 5.60664 8.08 5.41331C8.27333 5.21998 8.59333 5.21998 8.78666 5.41331L11.02 7.64664C11.2133 7.83998 11.2133 8.15998 11.02 8.35331L8.78666 10.5866C8.68666 10.6866 8.56 10.7333 8.43333 10.7333Z" fill="white"/>
</svg>
