<svg width="16" height="16" viewBox="0 0 16 16" fill="none" xmlns="http://www.w3.org/2000/svg">
<path d="M5.51337 15.1667H2.82004C1.48004 15.1667 0.833374 14.5467 0.833374 13.2667V2.73337C0.833374 1.45337 1.48671 0.833374 2.82004 0.833374H5.51337C6.85337 0.833374 7.50004 1.45337 7.50004 2.73337V13.2667C7.50004 14.5467 6.84671 15.1667 5.51337 15.1667ZM2.82004 1.83337C1.97337 1.83337 1.83337 2.06004 1.83337 2.73337V13.2667C1.83337 13.94 1.97337 14.1667 2.82004 14.1667H5.51337C6.36004 14.1667 6.50004 13.94 6.50004 13.2667V2.73337C6.50004 2.06004 6.36004 1.83337 5.51337 1.83337H2.82004V1.83337Z" fill="white"/>
<path d="M13.18 7.50004H10.4867C9.14667 7.50004 8.5 6.90671 8.5 5.68004V2.65337C8.5 1.42671 9.15333 0.833374 10.4867 0.833374H13.18C14.52 0.833374 15.1667 1.42671 15.1667 2.65337V5.67337C15.1667 6.90671 14.5133 7.50004 13.18 7.50004ZM10.4867 1.83337C9.59333 1.83337 9.5 2.08671 9.5 2.65337V5.67337C9.5 6.24671 9.59333 6.49337 10.4867 6.49337H13.18C14.0733 6.49337 14.1667 6.24004 14.1667 5.67337V2.65337C14.1667 2.08004 14.0733 1.83337 13.18 1.83337H10.4867Z" fill="white"/>
<path d="M13.18 15.1667H10.4867C9.14667 15.1667 8.5 14.5133 8.5 13.18V10.4867C8.5 9.14667 9.15333 8.5 10.4867 8.5H13.18C14.52 8.5 15.1667 9.15333 15.1667 10.4867V13.18C15.1667 14.5133 14.5133 15.1667 13.18 15.1667ZM10.4867 9.5C9.7 9.5 9.5 9.7 9.5 10.4867V13.18C9.5 13.9667 9.7 14.1667 10.4867 14.1667H13.18C13.9667 14.1667 14.1667 13.9667 14.1667 13.18V10.4867C14.1667 9.7 13.9667 9.5 13.18 9.5H10.4867Z" fill="white"/>
</svg>
