<svg width="24" height="24" viewBox="0 0 24 24" fill="none" xmlns="http://www.w3.org/2000/svg">
<path d="M10.15 22.759C9.92005 22.759 9.69005 22.719 9.47005 22.639C8.72005 22.359 8.24004 21.659 8.24004 20.859V14.409H5.90005C5.14005 14.409 4.48004 13.979 4.17004 13.289C3.86004 12.599 3.98003 11.819 4.48003 11.249L12.05 2.64897C12.58 2.04897 13.4 1.83897 14.15 2.12897C14.9 2.40897 15.38 3.10897 15.38 3.90897V10.359H17.7201C18.4801 10.359 19.14 10.789 19.45 11.479C19.76 12.169 19.64 12.949 19.14 13.519L11.57 22.119C11.2 22.539 10.68 22.759 10.15 22.759ZM13.46 3.49897C13.37 3.49897 13.26 3.52897 13.17 3.63897L5.60003 12.249C5.44003 12.429 5.50005 12.609 5.53005 12.679C5.56005 12.749 5.66005 12.919 5.90005 12.919H8.99004C9.40004 12.919 9.74004 13.259 9.74004 13.669V20.869C9.74004 21.119 9.92005 21.219 10.0001 21.249C10.0801 21.279 10.28 21.329 10.44 21.139L18.01 12.529C18.17 12.349 18.11 12.169 18.08 12.099C18.05 12.029 17.95 11.859 17.71 11.859H14.62C14.21 11.859 13.87 11.519 13.87 11.109V3.90897C13.87 3.65897 13.69 3.55897 13.61 3.52897C13.58 3.50897 13.52 3.49897 13.46 3.49897Z" fill="white"/>
</svg>
